<?xml version="1.0" encoding="utf-8"?>
<svg xmlns="http://www.w3.org/2000/svg" xmlns:xlink="http://www.w3.org/1999/xlink" width="600" height="400" viewBox="0 0 600 400">
<defs>
  <clipPath id="clip7800">
    <rect x="0" y="0" width="600" height="400"/>
  </clipPath>
</defs>
<polygon clip-path="url(#clip7800)" points="
0,400 600,400 600,0 0,0 
  " fill="#ffffff" fill-opacity="1"/>
<defs>
  <clipPath id="clip7801">
    <rect x="120" y="0" width="421" height="400"/>
  </clipPath>
</defs>
<polygon clip-path="url(#clip7800)" points="
45.8557,375.869 580.315,375.869 580.315,11.811 45.8557,11.811 
  " fill="#ffffff" fill-opacity="1"/>
<defs>
  <clipPath id="clip7802">
    <rect x="45" y="11" width="535" height="365"/>
  </clipPath>
</defs>
<polyline clip-path="url(#clip7802)" style="stroke:#000000; stroke-width:0.5; stroke-opacity:0.1; fill:none" points="
  45.8557,375.869 45.8557,11.811 
  "/>
<polyline clip-path="url(#clip7802)" style="stroke:#000000; stroke-width:0.5; stroke-opacity:0.1; fill:none" points="
  169.783,375.869 169.783,11.811 
  "/>
<polyline clip-path="url(#clip7802)" style="stroke:#000000; stroke-width:0.5; stroke-opacity:0.1; fill:none" points="
  293.711,375.869 293.711,11.811 
  "/>
<polyline clip-path="url(#clip7802)" style="stroke:#000000; stroke-width:0.5; stroke-opacity:0.1; fill:none" points="
  417.638,375.869 417.638,11.811 
  "/>
<polyline clip-path="url(#clip7802)" style="stroke:#000000; stroke-width:0.5; stroke-opacity:0.1; fill:none" points="
  541.566,375.869 541.566,11.811 
  "/>
<polyline clip-path="url(#clip7802)" style="stroke:#000000; stroke-width:0.5; stroke-opacity:0.1; fill:none" points="
  45.8557,364.427 580.315,364.427 
  "/>
<polyline clip-path="url(#clip7802)" style="stroke:#000000; stroke-width:0.5; stroke-opacity:0.1; fill:none" points="
  45.8557,312.944 580.315,312.944 
  "/>
<polyline clip-path="url(#clip7802)" style="stroke:#000000; stroke-width:0.5; stroke-opacity:0.1; fill:none" points="
  45.8557,261.462 580.315,261.462 
  "/>
<polyline clip-path="url(#clip7802)" style="stroke:#000000; stroke-width:0.5; stroke-opacity:0.1; fill:none" points="
  45.8557,209.98 580.315,209.98 
  "/>
<polyline clip-path="url(#clip7802)" style="stroke:#000000; stroke-width:0.5; stroke-opacity:0.1; fill:none" points="
  45.8557,158.498 580.315,158.498 
  "/>
<polyline clip-path="url(#clip7802)" style="stroke:#000000; stroke-width:0.5; stroke-opacity:0.1; fill:none" points="
  45.8557,107.015 580.315,107.015 
  "/>
<polyline clip-path="url(#clip7802)" style="stroke:#000000; stroke-width:0.5; stroke-opacity:0.1; fill:none" points="
  45.8557,55.5332 580.315,55.5332 
  "/>
<polyline clip-path="url(#clip7800)" style="stroke:#000000; stroke-width:1; stroke-opacity:1; fill:none" points="
  45.8557,375.869 580.315,375.869 
  "/>
<polyline clip-path="url(#clip7800)" style="stroke:#000000; stroke-width:1; stroke-opacity:1; fill:none" points="
  45.8557,375.869 45.8557,11.811 
  "/>
<polyline clip-path="url(#clip7800)" style="stroke:#000000; stroke-width:1; stroke-opacity:1; fill:none" points="
  45.8557,375.869 45.8557,370.408 
  "/>
<polyline clip-path="url(#clip7800)" style="stroke:#000000; stroke-width:1; stroke-opacity:1; fill:none" points="
  169.783,375.869 169.783,370.408 
  "/>
<polyline clip-path="url(#clip7800)" style="stroke:#000000; stroke-width:1; stroke-opacity:1; fill:none" points="
  293.711,375.869 293.711,370.408 
  "/>
<polyline clip-path="url(#clip7800)" style="stroke:#000000; stroke-width:1; stroke-opacity:1; fill:none" points="
  417.638,375.869 417.638,370.408 
  "/>
<polyline clip-path="url(#clip7800)" style="stroke:#000000; stroke-width:1; stroke-opacity:1; fill:none" points="
  541.566,375.869 541.566,370.408 
  "/>
<polyline clip-path="url(#clip7800)" style="stroke:#000000; stroke-width:1; stroke-opacity:1; fill:none" points="
  45.8557,364.427 53.8726,364.427 
  "/>
<polyline clip-path="url(#clip7800)" style="stroke:#000000; stroke-width:1; stroke-opacity:1; fill:none" points="
  45.8557,312.944 53.8726,312.944 
  "/>
<polyline clip-path="url(#clip7800)" style="stroke:#000000; stroke-width:1; stroke-opacity:1; fill:none" points="
  45.8557,261.462 53.8726,261.462 
  "/>
<polyline clip-path="url(#clip7800)" style="stroke:#000000; stroke-width:1; stroke-opacity:1; fill:none" points="
  45.8557,209.98 53.8726,209.98 
  "/>
<polyline clip-path="url(#clip7800)" style="stroke:#000000; stroke-width:1; stroke-opacity:1; fill:none" points="
  45.8557,158.498 53.8726,158.498 
  "/>
<polyline clip-path="url(#clip7800)" style="stroke:#000000; stroke-width:1; stroke-opacity:1; fill:none" points="
  45.8557,107.015 53.8726,107.015 
  "/>
<polyline clip-path="url(#clip7800)" style="stroke:#000000; stroke-width:1; stroke-opacity:1; fill:none" points="
  45.8557,55.5332 53.8726,55.5332 
  "/>
<g clip-path="url(#clip7800)">
<text style="fill:#000000; fill-opacity:1; font-family:Arial,Helvetica Neue,Helvetica,sans-serif; font-size:12; text-anchor:middle;" transform="rotate(0, 45.8557, 389.669)" x="45.8557" y="389.669">0</text>
</g>
<g clip-path="url(#clip7800)">
<text style="fill:#000000; fill-opacity:1; font-family:Arial,Helvetica Neue,Helvetica,sans-serif; font-size:12; text-anchor:start;" transform="rotate(0, 153.515, 394.62)" x="153.515" y="394.62">2×10</text>
</g>
<g clip-path="url(#clip7800)">
<text style="fill:#000000; fill-opacity:1; font-family:Arial,Helvetica Neue,Helvetica,sans-serif; font-size:10; text-anchor:start;" transform="rotate(0, 180.615, 387.768)" x="180.615" y="387.768">4</text>
</g>
<g clip-path="url(#clip7800)">
<text style="fill:#000000; fill-opacity:1; font-family:Arial,Helvetica Neue,Helvetica,sans-serif; font-size:12; text-anchor:start;" transform="rotate(0, 277.443, 394.62)" x="277.443" y="394.62">4×10</text>
</g>
<g clip-path="url(#clip7800)">
<text style="fill:#000000; fill-opacity:1; font-family:Arial,Helvetica Neue,Helvetica,sans-serif; font-size:10; text-anchor:start;" transform="rotate(0, 304.542, 387.768)" x="304.542" y="387.768">4</text>
</g>
<g clip-path="url(#clip7800)">
<text style="fill:#000000; fill-opacity:1; font-family:Arial,Helvetica Neue,Helvetica,sans-serif; font-size:12; text-anchor:start;" transform="rotate(0, 401.371, 394.62)" x="401.371" y="394.62">6×10</text>
</g>
<g clip-path="url(#clip7800)">
<text style="fill:#000000; fill-opacity:1; font-family:Arial,Helvetica Neue,Helvetica,sans-serif; font-size:10; text-anchor:start;" transform="rotate(0, 428.47, 387.768)" x="428.47" y="387.768">4</text>
</g>
<g clip-path="url(#clip7800)">
<text style="fill:#000000; fill-opacity:1; font-family:Arial,Helvetica Neue,Helvetica,sans-serif; font-size:12; text-anchor:start;" transform="rotate(0, 525.298, 394.62)" x="525.298" y="394.62">8×10</text>
</g>
<g clip-path="url(#clip7800)">
<text style="fill:#000000; fill-opacity:1; font-family:Arial,Helvetica Neue,Helvetica,sans-serif; font-size:10; text-anchor:start;" transform="rotate(0, 552.397, 387.768)" x="552.397" y="387.768">4</text>
</g>
<g clip-path="url(#clip7800)">
<text style="fill:#000000; fill-opacity:1; font-family:Arial,Helvetica Neue,Helvetica,sans-serif; font-size:12; text-anchor:end;" transform="rotate(0, 39.8557, 368.927)" x="39.8557" y="368.927">0.110</text>
</g>
<g clip-path="url(#clip7800)">
<text style="fill:#000000; fill-opacity:1; font-family:Arial,Helvetica Neue,Helvetica,sans-serif; font-size:12; text-anchor:end;" transform="rotate(0, 39.8557, 317.444)" x="39.8557" y="317.444">0.111</text>
</g>
<g clip-path="url(#clip7800)">
<text style="fill:#000000; fill-opacity:1; font-family:Arial,Helvetica Neue,Helvetica,sans-serif; font-size:12; text-anchor:end;" transform="rotate(0, 39.8557, 265.962)" x="39.8557" y="265.962">0.112</text>
</g>
<g clip-path="url(#clip7800)">
<text style="fill:#000000; fill-opacity:1; font-family:Arial,Helvetica Neue,Helvetica,sans-serif; font-size:12; text-anchor:end;" transform="rotate(0, 39.8557, 214.48)" x="39.8557" y="214.48">0.113</text>
</g>
<g clip-path="url(#clip7800)">
<text style="fill:#000000; fill-opacity:1; font-family:Arial,Helvetica Neue,Helvetica,sans-serif; font-size:12; text-anchor:end;" transform="rotate(0, 39.8557, 162.998)" x="39.8557" y="162.998">0.114</text>
</g>
<g clip-path="url(#clip7800)">
<text style="fill:#000000; fill-opacity:1; font-family:Arial,Helvetica Neue,Helvetica,sans-serif; font-size:12; text-anchor:end;" transform="rotate(0, 39.8557, 111.515)" x="39.8557" y="111.515">0.115</text>
</g>
<g clip-path="url(#clip7800)">
<text style="fill:#000000; fill-opacity:1; font-family:Arial,Helvetica Neue,Helvetica,sans-serif; font-size:12; text-anchor:end;" transform="rotate(0, 39.8557, 60.0332)" x="39.8557" y="60.0332">0.116</text>
</g>
<polyline clip-path="url(#clip7802)" style="stroke:#009af9; stroke-width:1; stroke-opacity:1; fill:none" points="
  45.8557,375.869 45.9762,354.653 46.4369,333.908 46.7297,336.212 46.8917,344.971 47.1745,333.908 47.3467,334.83 47.806,344.51 48.0812,340.822 48.4533,343.127 
  48.6438,340.822 49.1772,349.581 49.5812,343.127 50.4823,335.751 50.8095,344.971 50.9786,343.127 51.1689,337.595 51.3151,346.815 51.7941,361.57 52.0105,360.187 
  52.3095,362.032 52.9262,352.809 53.3316,367.566 53.715,365.721 54.3613,366.182 55.7689,366.182 56.8981,360.648 58.0343,351.887 58.7982,332.525 59.4814,343.127 
  60.4256,355.114 61.1027,355.114 61.9443,352.809 63.1,346.815 63.6548,356.498 64.7365,352.348 65.0937,339.9 66.0371,347.276 66.3109,347.737 66.6903,352.809 
  68.1995,344.049 69.1201,344.049 69.7394,331.142 70.3591,328.838 70.9267,319.16 71.2892,311.327 71.6137,326.073 72.1858,329.76 72.7589,326.073 73.8854,323.768 
  74.7302,315.474 75.1826,318.239 75.9258,322.847 76.6188,311.327 77.1177,316.856 77.4161,327.455 77.5983,334.369 77.9807,328.838 78.7574,337.595 79.376,344.049 
  80.5826,337.595 81.932,337.595 83.077,338.056 83.717,334.369 84.8826,330.22 85.469,320.082 85.6548,323.768 86.3448,326.994 87.2122,322.386 87.803,333.908 
  88.2053,321.464 88.7245,311.788 90.0007,324.69 93.4238,317.317 94.046,310.406 94.9035,314.553 95.7276,310.867 96.4397,313.17 96.7706,311.788 97.0047,315.013 
  97.216,309.485 97.591,304.878 97.9139,305.338 98.4131,311.788 98.7124,296.587 98.9671,301.193 99.4226,304.417 99.8987,312.71 100.586,309.945 101.501,303.035 
  102.078,298.429 103.318,302.575 103.907,315.013 104.361,320.543 105.395,319.16 106.102,320.082 107.234,316.856 108.196,319.621 109.555,323.768 111.405,324.229 
  112.602,321.925 113.033,326.533 113.918,331.603 115.379,321.925 117.626,322.847 118.908,310.867 119.773,305.338 121.232,313.17 121.769,315.935 122.337,319.621 
  123.061,312.71 123.559,303.496 124.353,309.945 125.212,315.935 126.099,307.181 126.57,291.06 127.312,305.799 128.659,297.508 130.074,309.485 131.086,302.114 
  132.373,303.035 133.543,302.114 135.372,303.956 137.507,299.811 139.921,304.878 141.622,302.114 144.592,300.732 147.367,302.114 148.237,292.441 149.012,288.757 
  149.686,296.126 150.807,297.508 151.822,292.902 152.398,291.06 152.916,292.902 153.216,292.441 154.287,292.902 155.787,289.218 156.577,292.441 157.893,292.441 
  160.467,293.363 161.429,296.587 162.904,284.152 163.446,283.231 164.6,289.678 167.412,292.902 169.244,287.376 172.197,275.864 174.118,277.706 175.223,275.404 
  176.563,280.008 178.837,280.008 179.242,269.879 180.159,269.879 180.539,272.642 182.505,274.023 183.478,277.706 184.796,272.642 186.357,271.26 188.184,283.692 
  189.241,282.31 189.966,288.297 191.228,285.994 192.87,280.468 194.067,286.915 195.076,291.981 195.55,288.297 197.773,292.441 199.162,290.599 199.755,296.587 
  200.656,295.205 201.035,304.417 201.204,301.653 201.458,302.114 201.716,313.17 201.857,306.72 201.95,306.72 202.072,307.642 202.5,312.249 203.467,321.003 
  203.964,311.788 204.484,320.543 205.173,327.455 205.607,332.525 206.383,328.377 206.7,316.856 207.412,318.239 208.011,305.338 208.886,310.867 209.472,304.878 
  210.075,307.181 210.803,311.327 212.32,315.474 212.997,315.013 213.682,321.464 214.381,315.935 214.806,321.925 215.166,330.22 215.774,319.621 216.119,311.788 
  216.529,314.553 216.79,310.867 217.144,317.778 217.565,315.013 218.113,319.621 218.699,326.073 219.092,326.073 219.364,339.439 219.586,337.595 219.864,333.447 
  220.217,344.51 220.904,333.908 221.145,323.308 221.436,332.525 221.842,330.22 222.324,316.856 222.625,311.327 223.216,314.092 223.388,303.956 223.801,292.902 
  224.113,297.047 224.346,289.678 224.662,295.665 224.838,293.363 225.22,297.508 225.343,292.902 225.515,295.205 225.793,287.836 226.161,287.376 226.311,290.599 
  226.568,274.483 226.665,264.355 226.849,268.959 226.992,279.548 227.145,275.864 227.273,280.929 227.37,283.231 227.579,291.06 227.755,297.047 227.948,285.994 
  228.249,287.376 228.655,281.85 228.944,281.85 229.106,282.771 229.311,281.85 229.554,284.613 229.805,290.139 229.994,285.073 230.501,291.52 230.891,275.404 
  231.333,282.31 231.55,274.943 231.651,276.785 231.882,266.197 232.253,268.038 232.605,270.34 232.986,267.578 233.172,270.8 233.37,268.959 233.561,273.102 
  233.755,253.77 233.917,250.548 233.973,240.886 233.992,235.825 234.042,245.487 234.24,236.285 234.399,236.745 234.607,242.266 234.701,232.605 234.91,247.787 
  235.157,233.065 235.292,231.225 235.413,224.325 235.53,223.865 235.692,222.485 235.893,227.085 236.103,220.646 236.304,228.925 236.492,232.605 236.72,223.865 
  236.889,227.085 237.204,222.025 237.517,218.806 237.71,228.925 238.057,228.005 238.502,233.525 238.842,228.925 239.243,233.065 239.533,243.646 239.77,242.726 
  239.962,241.346 240.255,247.327 240.632,248.708 240.921,241.346 241.213,247.327 241.474,251.008 241.701,248.247 242.273,246.407 242.528,248.247 242.891,239.505 
  243.137,242.726 243.503,241.346 243.689,239.505 244.04,240.425 244.588,245.026 244.824,243.646 245.191,248.708 245.417,243.646 245.629,247.327 245.82,241.346 
  245.977,226.625 246.031,218.806 246.17,226.165 246.259,234.905 246.443,225.245 246.562,225.705 246.708,222.485 246.881,224.785 247.09,226.165 247.221,222.485 
  247.387,219.266 247.515,228.005 247.685,238.585 247.819,240.886 248.03,225.705 248.268,223.865 248.489,228.005 248.707,236.745 248.842,234.445 249.024,227.545 
  249.382,223.405 249.563,215.127 249.777,215.587 249.924,221.565 250.18,219.266 250.419,224.785 250.662,222.025 251.038,210.529 251.117,196.736 251.25,205.931 
  251.437,200.873 251.738,210.988 251.878,212.368 252.175,220.186 252.336,222.945 252.422,227.085 252.594,230.305 252.961,219.726 253.159,219.726 253.481,214.667 
  253.919,217.426 254.156,220.646 254.392,217.426 254.706,226.165 254.935,229.385 255.24,214.207 255.418,219.726 255.653,222.945 255.914,212.828 256.292,210.069 
  256.587,205.471 256.705,196.736 256.965,205.471 257.172,206.85 257.65,207.77 257.929,208.689 258.102,211.448 258.231,203.172 258.58,200.414 258.774,203.632 
  258.87,203.632 259.018,202.712 259.353,203.172 259.704,197.196 259.829,194.437 260.057,187.543 260.146,197.655 260.313,192.139 260.466,204.551 260.581,207.31 
  260.743,224.785 260.755,221.565 260.877,214.207 261.132,207.77 261.191,192.139 261.232,172.837 261.289,165.945 261.409,172.378 261.586,166.864 261.698,160.433 
  261.791,162.27 261.966,159.055 262.141,157.217 262.237,148.95 262.285,149.868 262.353,154.921 262.544,150.327 262.732,142.52 262.853,151.705 263.028,150.787 
  263.188,150.327 263.357,148.49 263.463,142.98 263.595,139.765 263.751,147.113 263.925,142.98 264.179,139.306 264.361,157.217 264.488,156.298 264.669,159.055 
  264.838,164.108 264.993,146.653 265.096,145.735 265.229,148.95 265.322,148.031 265.534,152.624 265.875,142.061 266.034,144.816 266.305,143.898 266.666,142.52 
  266.992,137.928 267.109,127.369 267.315,135.633 267.471,129.664 267.715,126.909 267.841,136.092 268.009,134.714 268.153,131.96 268.444,126.45 268.621,123.696 
  268.734,114.057 268.829,110.386 268.955,131.96 268.992,117.729 269.075,125.532 269.255,126.45 269.33,117.27 269.5,124.614 269.712,132.878 269.928,134.714 
  270.043,131.041 270.303,124.614 270.468,121.401 270.566,124.614 270.933,127.369 271.153,134.255 271.524,139.765 271.781,131.96 272.027,121.401 272.3,129.664 
  272.582,133.337 272.642,129.205 272.746,123.237 272.94,117.27 273.027,122.778 273.166,128.287 273.343,136.551 273.611,135.173 274.013,137.928 274.185,124.614 
  274.376,123.696 274.612,124.614 274.779,127.828 275.207,127.828 275.392,125.991 276.012,129.664 276.334,127.828 276.619,125.073 277.218,125.991 277.478,116.811 
  277.833,122.319 278.232,123.696 278.503,131.041 278.892,126.45 279.184,130.123 279.588,120.024 279.799,120.024 280.438,128.287 280.77,128.746 281.138,129.205 
  281.633,125.073 281.984,120.024 282.25,120.942 282.454,113.598 282.718,112.68 283.032,118.188 283.337,121.86 283.858,125.532 284.095,116.352 284.328,124.614 
  284.59,133.796 284.825,131.041 284.998,132.878 285.235,123.237 285.74,134.255 286.034,128.746 286.268,128.287 286.423,130.582 286.644,135.633 286.866,124.155 
  287.008,125.991 287.201,115.893 287.411,120.024 287.711,112.68 288.086,110.844 288.473,117.729 288.905,118.188 289.127,118.188 289.421,113.139 290.054,116.811 
  290.459,112.68 290.873,120.024 291.224,121.401 291.549,108.091 291.772,103.043 291.9,105.338 292.174,97.5372 292.379,105.338 292.596,100.29 292.815,98.4548 
  293.086,99.8313 293.352,101.667 293.582,89.738 294.028,90.1968 294.23,90.6555 294.691,90.1968 294.958,86.9856 295.395,81.94 295.76,80.564 296.069,88.8205 
  296.567,91.1143 296.877,81.94 297.473,80.564 297.685,67.7231 297.808,72.3088 297.924,65.889 298.079,72.3088 298.444,70.4745 298.59,70.9331 298.773,64.9719 
  298.87,53.5102 298.979,64.5134 299.25,62.6794 299.434,55.8024 299.826,63.1379 300.143,65.889 300.565,57.6361 300.815,53.0518 300.925,50.3014 301.097,45.7177 
  301.271,44.801 301.417,44.3427 301.544,43.426 301.672,36.0933 301.771,30.1362 301.801,37.9263 301.883,31.9691 301.998,45.2593 302.13,47.5511 302.237,45.2593 
  302.358,46.176 302.454,40.2178 302.542,35.1767 302.777,38.3846 303.142,39.3012 303.315,41.1344 303.798,44.801 304.037,47.5511 304.121,50.3014 304.222,44.801 
  304.406,38.8429 304.77,34.7185 305.096,39.7595 305.569,31.0526 305.88,30.5944 306.077,31.5108 306.266,35.635 306.592,45.2593 306.771,53.0518 306.912,59.9285 
  307.157,46.176 307.333,58.0946 307.605,47.5511 307.849,58.5531 308.049,54.4271 308.245,53.9686 308.364,64.0549 308.513,63.5964 309.004,60.3869 309.385,60.3869 
  309.892,67.7231 310.175,62.2209 310.451,65.4305 310.815,72.3088 311.09,65.889 311.419,63.5964 311.878,60.8454 312.058,63.5964 312.242,67.2646 312.528,68.1817 
  312.849,78.7294 313.07,82.8574 313.411,82.8574 313.621,80.1054 314.141,81.94 314.31,86.0682 314.572,85.1508 314.794,84.6921 314.967,80.1054 315.271,78.7294 
  315.555,74.1432 315.9,74.6018 316.298,70.4745 316.842,63.1379 316.962,54.8855 317.446,59.47 317.781,53.0518 318.206,62.6794 318.716,60.3869 319.154,52.5934 
  319.333,42.5093 319.478,44.801 319.874,57.1777 320.37,52.135 320.691,37.9263 320.839,42.5093 321.146,37.4681 321.37,36.5515 321.523,27.8452 321.646,18.2241 
  321.723,14.1013 321.855,17.3079 322.114,14.1013 322.261,14.1013 322.436,14.1013 322.591,15.4755 322.666,13.1852 322.843,23.2635 322.974,25.5543 323.134,26.0124 
  323.276,33.3437 323.531,28.7616 323.85,32.8855 324.109,16.3917 324.303,11.811 324.539,16.3917 324.755,20.0565 325.079,15.0175 325.367,20.9728 325.687,23.7216 
  325.927,29.2198 326.33,30.5944 326.627,33.3437 326.956,30.1362 327.483,40.6761 327.708,42.9677 328.073,44.3427 328.355,43.8843 328.951,44.3427 329.206,43.8843 
  329.526,48.4679 329.88,52.135 330.177,59.9285 330.422,59.0115 330.647,57.6361 330.971,60.3869 331.355,59.47 331.792,67.2646 331.948,70.9331 332.095,74.1432 
  332.518,70.0159 332.963,72.7674 333.105,80.564 333.224,85.1508 333.457,88.8205 333.686,84.6921 333.78,85.1508 334.016,86.5269 334.235,92.0318 334.456,88.3618 
  334.61,97.5372 334.814,100.29 335.006,97.996 335.227,98.4548 335.486,95.702 335.713,100.749 335.931,96.1608 336.147,87.4444 336.36,86.5269 336.672,85.1508 
  337.194,88.3618 337.675,95.702 338.323,86.0682 339.075,79.188 339.418,88.3618 339.991,86.0682 340.412,95.2432 340.675,81.0227 341.222,72.7674 341.41,70.9331 
  341.548,64.9719 341.767,54.8855 341.928,67.2646 342.323,59.9285 342.519,59.0115 342.94,65.4305 343.15,52.5934 343.38,68.1817 343.655,64.0549 344.067,58.5531 
  344.272,55.8024 344.801,48.9262 345.532,54.4271 346.063,48.4679 346.588,48.0095 346.874,52.5934 347.029,59.9285 347.302,53.0518 347.473,56.7192 347.566,79.188 
  347.684,81.0227 347.813,82.3987 347.966,77.8121 348.123,78.7294 348.281,81.0227 348.462,95.2432 348.627,98.4548 348.713,103.502 348.885,93.8668 349.028,104.879 
  349.239,84.2334 349.379,92.9493 349.781,103.502 349.927,115.434 350.075,132.419 350.228,123.696 350.362,125.073 350.555,114.516 350.897,122.778 351.099,120.024 
  351.341,120.942 351.645,115.893 351.964,114.975 352.413,113.139 352.781,119.106 353.273,127.369 353.566,126.909 353.855,125.073 354.027,130.123 354.285,120.024 
  354.575,118.647 354.881,120.024 355.242,112.68 355.496,109.468 355.855,104.879 356.028,107.632 356.269,110.844 356.56,102.126 356.818,86.9856 356.972,95.2432 
  357.164,86.5269 357.436,82.3987 357.612,81.94 357.793,82.3987 358.086,81.94 358.232,91.573 358.405,86.9856 358.487,74.1432 358.692,76.8949 358.972,76.4362 
  359.195,86.5269 359.343,88.3618 359.541,89.738 359.849,81.94 360.055,74.1432 360.368,72.7674 360.598,69.5574 360.678,67.7231 360.828,70.9331 361.016,59.9285 
  361.463,65.889 361.845,53.5102 361.931,59.0115 362.077,62.2209 362.287,62.2209 362.521,63.5964 362.788,66.3475 363.081,62.6794 363.357,59.0115 363.511,63.5964 
  363.83,61.7624 364.103,55.8024 364.279,57.6361 364.468,58.0946 364.753,63.5964 364.844,67.2646 365.085,74.6018 365.344,64.0549 365.647,62.6794 365.847,69.5574 
  366.228,66.8061 366.703,62.6794 367.012,55.8024 367.346,58.5531 367.695,52.135 368.19,58.5531 368.407,64.5134 368.592,67.7231 369.188,67.2646 369.326,64.5134 
  369.454,59.47 369.735,59.9285 369.913,53.5102 370.016,49.3846 370.12,58.0946 370.505,62.6794 370.648,58.5531 370.859,69.0988 371.058,67.2646 371.357,72.3088 
  371.517,73.6846 371.925,69.5574 372.124,67.7231 372.482,75.9776 373.038,72.3088 373.071,48.0095 373.089,51.2182 373.123,42.9677 373.142,30.5944 373.187,41.1344 
  373.233,40.6761 373.363,51.6766 373.458,61.7624 373.538,60.3869 373.717,68.1817 373.995,56.7192 374.222,57.1777 374.444,57.1777 374.705,66.8061 374.917,68.6402 
  375.101,78.2708 375.368,75.519 375.837,71.3916 376.023,62.2209 376.247,52.5934 376.37,65.4305 376.47,63.5964 376.726,68.6402 376.93,69.0988 377.072,78.7294 
  377.26,76.4362 377.531,77.8121 377.78,81.0227 377.914,83.7747 378.225,93.4081 378.316,95.2432 378.417,105.796 378.511,107.632 378.581,112.68 378.644,106.714 
  378.862,100.29 379.038,114.516 379.27,114.057 379.561,107.173 379.766,99.8313 379.855,114.516 380.051,111.762 380.156,102.584 380.346,106.714 380.385,115.893 
  380.447,121.86 380.493,118.188 380.51,123.237 380.536,132.878 380.566,147.572 380.587,143.439 380.606,137.469 380.672,142.98 380.695,137.928 380.721,151.705 
  380.789,154.921 380.847,152.165 380.917,147.113 380.958,145.735 381.033,142.98 381.116,131.96 381.21,137.928 381.275,136.551 381.342,143.439 381.552,130.582 
  381.667,128.746 381.748,129.664 381.87,133.796 382.011,139.306 382.221,131.041 382.405,130.123 382.54,131.96 382.728,131.041 382.853,131.041 383.033,129.664 
  383.189,130.582 383.485,131.5 383.721,135.173 383.847,143.898 383.948,154.002 384.111,145.735 384.208,147.113 384.358,153.083 384.473,155.38 384.625,170.54 
  384.7,178.811 384.809,178.811 384.914,179.27 384.998,178.811 385.04,185.704 385.125,191.22 385.29,188.002 385.436,176.513 385.506,180.189 385.67,182.947 
  385.852,197.655 385.925,197.196 386.021,187.083 386.308,182.028 386.42,182.487 386.454,182.028 386.501,184.785 386.633,177.892 386.75,183.406 386.974,176.973 
  387.094,179.73 387.33,180.189 387.531,180.189 387.684,191.679 387.816,195.357 387.995,203.632 388.07,208.689 388.234,210.529 388.333,209.609 388.517,213.747 
  388.715,219.266 388.885,216.966 389.073,214.207 389.24,211.448 389.604,207.77 389.795,217.886 389.978,212.368 390.222,205.471 390.372,199.034 390.522,190.76 
  390.637,191.679 390.837,196.276 391.004,205.011 391.217,213.747 391.364,214.207 391.613,220.186 391.798,222.485 392.081,217.426 392.322,211.448 392.563,207.77 
  392.649,204.091 392.887,215.127 393.265,216.047 393.427,206.85 393.516,214.207 393.708,213.288 393.869,221.565 393.998,231.685 394.082,233.065 394.232,238.585 
  394.438,232.145 394.932,230.305 395.256,224.325 395.5,222.025 395.658,222.025 395.914,228.465 396.073,236.285 396.282,233.985 396.439,239.965 396.752,229.845 
  397.097,226.625 397.261,222.025 397.554,210.529 397.715,204.551 397.883,198.575 398.179,207.77 398.654,208.229 398.903,205.471 399.415,206.85 399.807,204.551 
  399.948,201.793 400.117,210.988 400.306,216.047 400.389,223.405 400.662,228.465 401.166,220.186 401.534,211.448 401.808,214.207 401.896,217.426 401.988,219.266 
  402.111,215.127 402.252,217.886 402.379,218.346 402.443,224.325 402.49,225.245 402.593,216.047 402.739,221.105 402.823,218.346 403.038,211.448 403.223,214.667 
  403.348,210.529 403.451,211.908 403.568,202.252 403.698,196.276 403.991,200.873 404.136,204.091 404.317,211.448 404.662,210.529 405.1,216.047 405.33,205.931 
  405.409,217.426 405.589,217.886 405.856,214.667 406.285,221.565 406.527,226.165 406.922,231.225 407.391,237.665 407.57,243.186 407.769,232.605 408.353,240.886 
  408.617,252.389 408.764,262.514 408.983,265.276 409.241,262.975 409.516,262.054 409.894,253.77 410.236,262.054 410.443,269.419 410.815,262.975 411.313,255.15 
  411.72,266.657 412.049,273.102 412.274,274.943 412.535,270.8 412.902,273.102 413.408,273.562 413.776,279.087 413.92,283.692 414.059,274.023 414.207,281.85 
  414.319,270.34 414.564,276.325 414.791,263.435 415.287,273.562 415.461,263.895 415.728,262.975 416.022,267.578 416.546,263.895 416.723,266.197 417.195,258.372 
  417.593,255.611 418.125,240.886 418.241,237.665 418.512,238.585 418.821,239.045 419.013,241.346 419.237,251.469 419.648,245.487 419.859,245.487 420.413,237.205 
  420.591,223.865 420.935,231.225 421.239,224.785 421.404,231.685 421.685,237.205 421.804,227.545 422.244,236.745 422.623,239.505 422.753,247.327 423.029,251.929 
  423.215,248.708 423.718,255.611 424.24,248.247 424.572,230.305 424.812,243.646 425.457,249.168 425.827,255.611 426.473,256.991 426.734,267.578 426.958,263.895 
  427.363,280.929 427.514,275.864 427.924,274.483 428.42,267.578 428.937,266.197 429.404,273.562 429.783,287.376 429.913,296.126 430.163,288.297 430.51,281.85 
  430.841,296.587 431.212,291.981 431.681,297.508 432.021,300.732 432.29,289.678 432.87,291.981 433.553,277.245 434.343,285.994 434.957,274.943 435.328,268.038 
  435.725,277.706 435.942,269.879 436.64,268.498 437.267,278.627 437.858,286.915 438.448,297.047 439.107,292.441 439.826,284.152 440.372,285.534 441.633,287.376 
  442.287,286.455 442.82,286.455 443.243,282.771 443.644,286.455 443.721,294.284 444.094,294.744 444.478,295.665 445.047,289.218 446.199,288.757 446.438,294.284 
  447.011,302.114 447.72,292.902 448.106,297.047 448.817,291.981 449.86,289.218 450.73,283.231 451.574,274.023 452.17,263.895 452.571,265.736 454.001,261.594 
  455.059,258.832 455.714,265.276 456.258,270.8 456.728,261.133 457.333,257.451 458.212,257.451 458.957,245.947 459.388,254.23 460.163,245.947 460.956,249.628 
  461.492,256.991 461.823,255.611 462.355,248.708 463.207,254.23 463.635,248.247 464.336,246.867 465.161,242.266 465.31,233.525 465.521,228.465 465.856,245.026 
  466.238,233.985 466.427,229.845 466.679,233.985 467.1,238.125 467.463,247.327 468.504,237.205 469.011,230.305 469.482,232.145 469.883,228.465 470.292,220.186 
  470.507,219.726 470.928,218.806 471.465,219.266 471.922,212.828 472.302,205.931 472.373,206.39 472.87,210.988 473.161,206.85 473.625,206.85 474.146,214.667 
  474.807,221.565 475.225,220.186 475.854,218.346 476.208,215.127 476.553,216.507 477.307,210.988 477.816,217.886 479.267,217.886 480.461,223.405 480.77,230.305 
  481.267,230.305 481.771,219.266 482.173,218.806 482.842,228.005 483.104,228.465 483.976,230.765 484.771,222.945 485.809,228.465 486.871,234.445 487.498,221.105 
  488.146,221.105 488.881,228.925 489.666,230.765 490.592,231.685 491.245,241.806 491.809,248.708 491.917,255.15 492.053,251.008 492.826,250.548 493.638,257.912 
  493.944,260.673 494.644,263.435 496.165,262.054 497.571,265.736 498.81,268.498 500.764,267.578 501.622,268.038 503.035,268.498 503.921,267.578 504.928,266.657 
  505.532,274.023 506.296,268.959 506.863,269.419 507.88,273.562 508.749,269.419 509.59,269.879 510.026,268.038 510.666,269.419 511.32,274.943 511.553,274.023 
  512.077,271.721 512.451,269.879 513.011,273.562 513.436,279.087 513.64,279.548 513.924,284.613 514.055,284.613 514.272,277.245 514.342,277.706 514.555,265.276 
  514.78,277.706 514.971,276.325 515.214,275.404 515.54,275.864 515.983,277.706 516.363,278.166 516.451,277.706 516.649,279.548 517.035,280.008 517.826,282.771 
  518.552,274.483 519.387,275.864 520.9,274.023 521.895,274.023 522.918,272.181 524.182,282.771 524.981,284.613 525.445,287.836 526.842,278.627 528,274.483 
  528.655,272.181 529.732,270.8 531.17,270.8 533.053,272.642 533.674,275.864 534.727,272.642 535.498,267.117 535.904,273.562 538.832,265.276 539.731,265.736 
  541.261,267.117 542.194,266.197 543.538,270.34 546.407,273.562 547.682,275.404 548.361,271.26 550.463,273.102 551.019,274.943 552.66,268.038 553.704,274.023 
  554.347,278.166 554.988,277.706 555.94,281.389 556.404,279.548 557.188,279.548 558.126,280.929 558.448,283.692 559.138,289.678 560.001,290.139 562.633,284.613 
  563.517,282.771 565.05,273.562 566.966,278.627 568.946,279.548 570.867,279.087 572.143,269.879 574.265,274.023 575.626,274.023 576.429,286.915 576.881,290.139 
  578.14,294.284 579.778,298.429 580.315,299.35 
  "/>
<polygon clip-path="url(#clip7800)" points="
448.165,62.931 562.315,62.931 562.315,32.691 448.165,32.691 
  " fill="#ffffff" fill-opacity="1"/>
<polyline clip-path="url(#clip7800)" style="stroke:#000000; stroke-width:1; stroke-opacity:1; fill:none" points="
  448.165,62.931 562.315,62.931 562.315,32.691 448.165,32.691 448.165,62.931 
  "/>
<polyline clip-path="url(#clip7800)" style="stroke:#009af9; stroke-width:1; stroke-opacity:1; fill:none" points="
  454.165,47.811 490.165,47.811 
  "/>
<g clip-path="url(#clip7800)">
<text style="fill:#000000; fill-opacity:1; font-family:Arial,Helvetica Neue,Helvetica,sans-serif; font-size:12; text-anchor:start;" transform="rotate(0, 496.165, 52.311)" x="496.165" y="52.311">EUR/USD</text>
</g>
</svg>
