<?xml version="1.0" encoding="utf-8"?>
<svg xmlns="http://www.w3.org/2000/svg" xmlns:xlink="http://www.w3.org/1999/xlink" width="600" height="400" viewBox="0 0 600 400">
<defs>
  <clipPath id="clip8400">
    <rect x="0" y="0" width="600" height="400"/>
  </clipPath>
</defs>
<polygon clip-path="url(#clip8400)" points="
0,400 600,400 600,0 0,0 
  " fill="#ffffff" fill-opacity="1"/>
<defs>
  <clipPath id="clip8401">
    <rect x="120" y="0" width="421" height="400"/>
  </clipPath>
</defs>
<polygon clip-path="url(#clip8400)" points="
39.1651,375.869 580.315,375.869 580.315,31.4961 39.1651,31.4961 
  " fill="#ffffff" fill-opacity="1"/>
<defs>
  <clipPath id="clip8402">
    <rect x="39" y="31" width="542" height="345"/>
  </clipPath>
</defs>
<polyline clip-path="url(#clip8402)" style="stroke:#000000; stroke-width:0.5; stroke-opacity:0.1; fill:none" points="
  39.1651,375.869 39.1651,31.4961 
  "/>
<polyline clip-path="url(#clip8402)" style="stroke:#000000; stroke-width:0.5; stroke-opacity:0.1; fill:none" points="
  147.395,375.869 147.395,31.4961 
  "/>
<polyline clip-path="url(#clip8402)" style="stroke:#000000; stroke-width:0.5; stroke-opacity:0.1; fill:none" points="
  255.625,375.869 255.625,31.4961 
  "/>
<polyline clip-path="url(#clip8402)" style="stroke:#000000; stroke-width:0.5; stroke-opacity:0.1; fill:none" points="
  363.855,375.869 363.855,31.4961 
  "/>
<polyline clip-path="url(#clip8402)" style="stroke:#000000; stroke-width:0.5; stroke-opacity:0.1; fill:none" points="
  472.085,375.869 472.085,31.4961 
  "/>
<polyline clip-path="url(#clip8402)" style="stroke:#000000; stroke-width:0.5; stroke-opacity:0.1; fill:none" points="
  580.315,375.869 580.315,31.4961 
  "/>
<polyline clip-path="url(#clip8402)" style="stroke:#000000; stroke-width:0.5; stroke-opacity:0.1; fill:none" points="
  39.1651,296.816 580.315,296.816 
  "/>
<polyline clip-path="url(#clip8402)" style="stroke:#000000; stroke-width:0.5; stroke-opacity:0.1; fill:none" points="
  39.1651,215.913 580.315,215.913 
  "/>
<polyline clip-path="url(#clip8402)" style="stroke:#000000; stroke-width:0.5; stroke-opacity:0.1; fill:none" points="
  39.1651,135.009 580.315,135.009 
  "/>
<polyline clip-path="url(#clip8402)" style="stroke:#000000; stroke-width:0.5; stroke-opacity:0.1; fill:none" points="
  39.1651,54.1057 580.315,54.1057 
  "/>
<polyline clip-path="url(#clip8400)" style="stroke:#000000; stroke-width:1; stroke-opacity:1; fill:none" points="
  39.1651,375.869 580.315,375.869 
  "/>
<polyline clip-path="url(#clip8400)" style="stroke:#000000; stroke-width:1; stroke-opacity:1; fill:none" points="
  39.1651,375.869 39.1651,31.4961 
  "/>
<polyline clip-path="url(#clip8400)" style="stroke:#000000; stroke-width:1; stroke-opacity:1; fill:none" points="
  39.1651,375.869 39.1651,370.703 
  "/>
<polyline clip-path="url(#clip8400)" style="stroke:#000000; stroke-width:1; stroke-opacity:1; fill:none" points="
  147.395,375.869 147.395,370.703 
  "/>
<polyline clip-path="url(#clip8400)" style="stroke:#000000; stroke-width:1; stroke-opacity:1; fill:none" points="
  255.625,375.869 255.625,370.703 
  "/>
<polyline clip-path="url(#clip8400)" style="stroke:#000000; stroke-width:1; stroke-opacity:1; fill:none" points="
  363.855,375.869 363.855,370.703 
  "/>
<polyline clip-path="url(#clip8400)" style="stroke:#000000; stroke-width:1; stroke-opacity:1; fill:none" points="
  472.085,375.869 472.085,370.703 
  "/>
<polyline clip-path="url(#clip8400)" style="stroke:#000000; stroke-width:1; stroke-opacity:1; fill:none" points="
  580.315,375.869 580.315,370.703 
  "/>
<polyline clip-path="url(#clip8400)" style="stroke:#000000; stroke-width:1; stroke-opacity:1; fill:none" points="
  39.1651,296.816 47.2823,296.816 
  "/>
<polyline clip-path="url(#clip8400)" style="stroke:#000000; stroke-width:1; stroke-opacity:1; fill:none" points="
  39.1651,215.913 47.2823,215.913 
  "/>
<polyline clip-path="url(#clip8400)" style="stroke:#000000; stroke-width:1; stroke-opacity:1; fill:none" points="
  39.1651,135.009 47.2823,135.009 
  "/>
<polyline clip-path="url(#clip8400)" style="stroke:#000000; stroke-width:1; stroke-opacity:1; fill:none" points="
  39.1651,54.1057 47.2823,54.1057 
  "/>
<g clip-path="url(#clip8400)">
<text style="fill:#000000; fill-opacity:1; font-family:Arial,Helvetica Neue,Helvetica,sans-serif; font-size:12; text-anchor:middle;" transform="rotate(0, 39.1651, 389.669)" x="39.1651" y="389.669">0.0</text>
</g>
<g clip-path="url(#clip8400)">
<text style="fill:#000000; fill-opacity:1; font-family:Arial,Helvetica Neue,Helvetica,sans-serif; font-size:12; text-anchor:middle;" transform="rotate(0, 147.395, 389.669)" x="147.395" y="389.669">0.2</text>
</g>
<g clip-path="url(#clip8400)">
<text style="fill:#000000; fill-opacity:1; font-family:Arial,Helvetica Neue,Helvetica,sans-serif; font-size:12; text-anchor:middle;" transform="rotate(0, 255.625, 389.669)" x="255.625" y="389.669">0.4</text>
</g>
<g clip-path="url(#clip8400)">
<text style="fill:#000000; fill-opacity:1; font-family:Arial,Helvetica Neue,Helvetica,sans-serif; font-size:12; text-anchor:middle;" transform="rotate(0, 363.855, 389.669)" x="363.855" y="389.669">0.6</text>
</g>
<g clip-path="url(#clip8400)">
<text style="fill:#000000; fill-opacity:1; font-family:Arial,Helvetica Neue,Helvetica,sans-serif; font-size:12; text-anchor:middle;" transform="rotate(0, 472.085, 389.669)" x="472.085" y="389.669">0.8</text>
</g>
<g clip-path="url(#clip8400)">
<text style="fill:#000000; fill-opacity:1; font-family:Arial,Helvetica Neue,Helvetica,sans-serif; font-size:12; text-anchor:middle;" transform="rotate(0, 580.315, 389.669)" x="580.315" y="389.669">1.0</text>
</g>
<g clip-path="url(#clip8400)">
<text style="fill:#000000; fill-opacity:1; font-family:Arial,Helvetica Neue,Helvetica,sans-serif; font-size:12; text-anchor:end;" transform="rotate(0, 33.1651, 301.316)" x="33.1651" y="301.316">0.02</text>
</g>
<g clip-path="url(#clip8400)">
<text style="fill:#000000; fill-opacity:1; font-family:Arial,Helvetica Neue,Helvetica,sans-serif; font-size:12; text-anchor:end;" transform="rotate(0, 33.1651, 220.413)" x="33.1651" y="220.413">0.04</text>
</g>
<g clip-path="url(#clip8400)">
<text style="fill:#000000; fill-opacity:1; font-family:Arial,Helvetica Neue,Helvetica,sans-serif; font-size:12; text-anchor:end;" transform="rotate(0, 33.1651, 139.509)" x="33.1651" y="139.509">0.06</text>
</g>
<g clip-path="url(#clip8400)">
<text style="fill:#000000; fill-opacity:1; font-family:Arial,Helvetica Neue,Helvetica,sans-serif; font-size:12; text-anchor:end;" transform="rotate(0, 33.1651, 58.6057)" x="33.1651" y="58.6057">0.08</text>
</g>
<g clip-path="url(#clip8400)">
<text style="fill:#000000; fill-opacity:1; font-family:Arial,Helvetica Neue,Helvetica,sans-serif; font-size:21; text-anchor:middle;" transform="rotate(0, 309.74, 18)" x="309.74" y="18">Volatility estimate</text>
</g>
<polyline clip-path="url(#clip8402)" style="stroke:#00008b; stroke-width:0.5; stroke-opacity:1; fill:none" points="
  39.1651,290.93 54.0487,290.93 54.0487,266.689 66.8451,266.689 66.8451,196.187 80.4485,196.187 80.4485,192.671 92.8147,192.671 92.8147,151.864 106.874,151.864 
  106.874,246.248 121.258,246.248 121.258,321.236 134.136,321.236 134.136,344.01 149.621,344.01 149.621,331.675 163.131,331.675 163.131,324.008 179.147,324.008 
  179.147,317.239 191.974,317.239 191.974,317.357 205.759,317.357 205.759,329.567 221.786,329.567 221.786,347.875 234.321,347.875 234.321,359.539 247.712,359.539 
  247.712,362.258 260.304,362.258 260.304,362.612 272.361,362.612 272.361,347.204 286.726,347.204 286.726,357.92 298.84,357.92 298.84,356.286 312.303,356.286 
  312.303,347.969 326.234,347.969 326.234,323.659 340.794,323.659 340.794,320.173 354.53,320.173 354.53,308.494 366.113,308.494 366.113,289.015 379.848,289.015 
  379.848,233.7 394.299,233.7 394.299,250.336 407.559,250.336 407.559,277.354 420.336,277.354 420.336,289.551 435.127,289.551 435.127,310.079 447.885,310.079 
  447.885,266.619 462.826,266.619 462.826,249.864 474.769,249.864 474.769,277.349 487.684,277.349 487.684,302.2 501.511,302.2 501.511,263.862 515.823,263.862 
  515.823,290.489 529.731,290.489 529.731,346.929 542.913,346.929 542.913,354.852 552.863,354.852 552.863,342.176 566.449,342.176 566.449,308.133 580.315,308.133 
  
  "/>
<polyline clip-path="url(#clip8402)" style="stroke:#ff0000; stroke-width:1; stroke-opacity:1; fill:none" points="
  39.1651,215.913 40.2139,252.902 42.2535,243.329 44.0549,254.462 45.1143,209.253 47.1001,260.344 48.569,297.493 49.7611,295.749 51.0044,278.411 52.9086,312.012 
  54.0487,310.381 55.3572,281.152 56.2358,262.657 57.3926,279.062 58.8919,252.916 60.0926,226.723 61.7992,266.911 62.7367,271.937 64.0282,281.734 65.6265,286.268 
  66.8451,293.733 68.4325,257.628 69.7553,265.665 71.0192,246.033 72.8564,215.085 73.815,222.281 75.5045,215.461 77.2732,174.006 78.2298,200.072 79.0937,190.678 
  80.4485,190.19 81.9014,186.765 82.8507,174.353 84.124,164.496 86.0196,149.467 87.3465,131.757 89.293,160.561 89.9949,176.311 91.2808,180.715 92.0178,177.736 
  92.8147,195.583 94.1072,180.826 96.1252,242.869 97.0725,245.767 98.6991,215.487 100.24,218.385 101.592,204.766 102.568,159.455 104.619,124.322 105.359,103.736 
  106.874,106.313 107.933,116.659 109.332,114.972 110.797,134.232 112.371,178.988 114.555,184.113 116.52,177.445 117.832,255.803 119.227,283.261 120.411,286.552 
  121.258,312.81 122.748,309.463 123.443,307.819 124.582,327.38 126.476,310.096 127.923,315.014 128.654,284.266 130.803,307.698 132.154,321.819 133.387,322.206 
  134.136,322.539 136.073,348.192 138.149,347.964 140.453,337.906 142.141,336.724 143.293,314.951 144.318,318.018 145.48,322.38 146.976,313.473 148.561,301.7 
  149.621,291.735 150.981,306.789 152.356,313.483 153.692,302.104 154.844,291.547 155.934,294.493 157.346,284.761 159.172,273.52 160.586,281.854 162.09,284.813 
  163.131,277.804 164.582,288.066 165.798,287.799 167.293,304.247 169.067,304.523 170.742,302.481 172.631,295.238 173.946,268.899 175.853,274.958 177.059,235.547 
  179.147,241.448 180.561,293.658 181.235,285.862 182.805,311.977 183.912,305.708 185.664,315.817 187.675,318.729 189.171,296.354 190.224,297.565 190.863,281.031 
  191.974,282.749 192.952,293.52 193.831,273.905 195.292,255.248 196.341,240.606 198.595,224.034 201.553,281.404 202.678,283.694 203.518,277.833 205.023,242.205 
  205.759,242.838 207.384,247.422 208.856,236.691 211.056,251.906 212.596,275.396 213.982,285.039 215.388,284.111 216.923,275.058 218.452,288.451 219.425,336.817 
  221.786,333.889 223.096,336.403 223.99,351 225.075,357.416 226.386,358.965 227.284,364.322 228.872,355.038 230.332,349.741 232.322,336.266 233.358,330.783 
  234.321,327.024 235.03,327.357 235.847,327.595 237.08,342.728 238.297,352.612 239.475,348.145 240.953,343.074 242.258,337.771 243.976,341.043 245.451,350.777 
  247.712,340 248.324,330.315 249.293,338.893 250.566,354.141 252.08,351.752 252.923,360.006 254.292,366.443 256.339,369.144 257.277,367.343 258.672,367.608 
  260.304,368.961 261.718,364.557 263.034,357.798 264.811,361.49 266.194,352.306 266.465,348.062 267.017,347.507 268.151,337.918 269.301,323.595 270.65,339.036 
  272.361,311.837 273.938,323.142 274.546,320.776 275.737,332.659 276.297,325.715 278.172,348.28 280.391,353.716 282.463,355.873 284.189,351.371 285.56,361.26 
  286.726,359.129 288.34,369.205 289.274,370.725 290.378,369.147 291.38,370.553 292.719,373.64 293.408,372.778 294.7,362.054 296.144,360.966 297.428,360.021 
  298.84,366.664 300.294,375.869 301.678,364.185 302.848,370.44 303.779,365.77 305.936,363.94 306.754,361.955 308.54,349.297 310.264,342.001 311.227,332.392 
  312.303,316.027 313.243,326.644 314.295,324.84 315.26,308.414 317.282,308.243 318.492,312.147 319.667,304.416 320.805,297.125 322.659,290.94 324.453,300.85 
  326.234,305.939 327.633,310.113 328.894,301.502 330.319,289.491 332.438,297.706 334.457,305.587 336.218,256.738 337.136,259.275 338.809,310.016 339.939,324.748 
  340.794,327.725 342.793,312.557 343.593,326.533 344.925,331.352 346.532,340.855 348.552,327.103 350.334,318.45 351.903,313.316 352.922,276.89 353.647,275.955 
  354.53,287.546 355.31,276.766 356.371,266.96 358.373,252.231 359.547,266.642 360.728,270.053 361.76,294.928 362.614,297.34 364.297,285.276 364.82,288.915 
  366.113,283.312 367.816,251.3 369.547,259.437 370.629,283.551 372.89,262.853 374.436,280.296 375.489,243.507 377.37,227.74 377.733,224.943 378.85,228.789 
  379.848,256.4 381.15,237.289 382.717,232.412 383.723,199.992 385.682,183.706 387.865,196.953 388.388,210.745 389.95,213.122 391.087,208.375 392.182,223.986 
  394.299,230.457 395.166,223.837 396.865,209.13 398.472,212.198 399.565,219.646 401.032,193.111 402.384,226.137 403.441,226.115 404.886,194.787 406.55,233.215 
  407.559,236.749 408.388,252.128 410.07,249.617 411.048,246.665 412.682,221.658 413.643,230.453 415.089,232.514 416.263,271.786 417.534,252.63 418.799,217.917 
  420.336,235.133 421.817,249.093 423.269,250.421 424.471,243.822 426.559,235.955 427.986,260.329 429.656,218.445 430.564,246.247 431.742,279.779 433.873,329.084 
  435.127,333.205 436.372,353.251 437.446,348.505 438.919,345.944 440.317,349.582 441.72,347.516 442.919,344.032 444.245,327.329 445.044,328.18 446.706,304.972 
  447.885,305.48 449.329,261.888 450.185,283.738 451.152,268.56 453.483,263.285 455.366,260.866 457.277,255.076 458.432,254.363 460.192,229.358 462.041,228.722 
  462.826,225.022 463.579,228.018 464.275,213.778 465.1,247.525 467.025,229.011 468.478,215.881 470.129,221.474 471.373,163.41 472.068,168.11 473.485,159.804 
  474.769,129.341 475.967,158.008 477.407,200.84 479.273,246.543 480.142,257.716 481.574,256.618 482.48,267.787 483.429,290.663 484.944,280.711 486.323,291.881 
  487.684,312.218 488.19,314.845 490.099,340.538 491.268,340.447 492.447,344.483 493.376,333.224 494.86,326.675 497.39,309.051 498.147,302.732 499.224,304.08 
  501.511,287.835 502.803,273.275 504.854,250.043 505.9,257.096 507.399,247.501 508.391,255.382 509.911,239.91 511.33,242.957 512.398,209.507 514.835,192.372 
  515.823,207.048 517.003,188.127 518.687,171.756 519.681,176.013 521.25,188.081 522.492,196.617 524.33,234.732 525.724,266.378 526.981,288.026 528.408,273.242 
  529.731,293.387 531.163,333.252 532.166,323.68 532.87,327.789 534.077,334.503 535.533,352.505 536.788,342.551 538.997,361.197 540.883,368.853 541.631,367.461 
  542.913,362.166 544.119,364.355 544.959,352.19 545.955,360.999 547.327,363.58 548.776,371.438 549.213,374.694 550.225,372.163 551.224,372.551 552.304,370.939 
  552.863,371.762 554.171,352.202 555.293,358.865 556.518,357.73 557.568,352.753 559.946,341.892 561.911,344.648 562.982,349.334 564.053,341.799 565.389,338.616 
  566.449,347.679 567.351,330.8 568.327,320.035 570.096,286 571.911,264.231 573.716,274.169 574.851,256.512 576.221,200.234 577.239,199.579 578.357,215.779 
  580.315,222.013 
  "/>
<polygon clip-path="url(#clip8402)" points="
39.1651,331.883 54.0487,331.883 54.0487,314.104 66.8451,314.104 66.8451,268.4 80.4485,268.4 80.4485,253.244 92.8147,253.244 92.8147,229.012 106.874,229.012 
  106.874,294.472 121.258,294.472 121.258,348.461 134.136,348.461 134.136,361.979 149.621,361.979 149.621,351.263 163.131,351.263 163.131,346.564 179.147,346.564 
  179.147,342.527 191.974,342.527 191.974,344.191 205.759,344.191 205.759,352.562 221.786,352.562 221.786,362.278 234.321,362.278 234.321,368.289 247.712,368.289 
  247.712,370.158 260.304,370.158 260.304,370.869 272.361,370.869 272.361,359.681 286.726,359.681 286.726,368.636 298.84,368.636 298.84,366.398 312.303,366.398 
  312.303,362.598 326.234,362.598 326.234,345.223 340.794,345.223 340.794,346.01 354.53,346.01 354.53,337.474 366.113,337.474 366.113,327.431 379.848,327.431 
  379.848,284 394.299,284 394.299,298.189 407.559,298.189 407.559,314.489 420.336,314.489 420.336,322.107 435.127,322.107 435.127,338.858 447.885,338.858 
  447.885,307.201 462.826,307.201 462.826,297.72 474.769,297.72 474.769,316.157 487.684,316.157 487.684,336.18 501.511,336.18 501.511,306.356 515.823,306.356 
  515.823,323.638 529.731,323.638 529.731,363.01 542.913,363.01 542.913,368.547 552.863,368.547 552.863,359.636 566.449,359.636 566.449,337.16 580.315,337.16 
  580.315,253.614 566.449,253.614 566.449,311.704 552.863,311.704 552.863,329.497 542.913,329.497 542.913,317.068 529.731,317.068 529.731,234.561 515.823,234.561 
  515.823,192.079 501.511,192.079 501.511,244.03 487.684,244.03 487.684,213.477 474.769,213.477 474.769,171.84 462.826,171.84 462.826,197.36 447.885,197.36 
  447.885,264.693 435.127,264.693 435.127,234.735 420.336,234.735 420.336,216.874 407.559,216.874 407.559,175.891 394.299,175.891 394.299,153.294 379.848,153.294 
  379.848,228.45 366.113,228.45 366.113,257.214 354.53,257.214 354.53,276.757 340.794,276.757 340.794,284.082 326.234,284.082 326.234,316.928 312.303,316.928 
  312.303,337.665 298.84,337.665 298.84,338.361 286.726,338.361 286.726,322.438 272.361,322.438 272.361,346.321 260.304,346.321 260.304,348.203 247.712,348.203 
  247.712,343.774 234.321,343.774 234.321,321.136 221.786,321.136 221.786,289.928 205.759,289.928 205.759,266.782 191.974,266.782 191.974,275.827 179.147,275.827 
  179.147,285.547 163.131,285.547 163.131,297.818 149.621,297.818 149.621,307.813 134.136,307.813 134.136,273.284 121.258,273.284 121.258,169.638 106.874,169.638 
  106.874,31.4961 92.8147,31.4961 92.8147,91.0278 80.4485,91.0278 80.4485,80.5181 66.8451,80.5181 66.8451,185.514 54.0487,185.514 54.0487,217.33 39.1651,217.33 
  
  " fill="#00008b" fill-opacity="0.2"/>
<polyline clip-path="url(#clip8402)" style="stroke:#3da44d; stroke-width:1; stroke-opacity:0; fill:none" points="
  39.1651,331.883 54.0487,331.883 54.0487,314.104 66.8451,314.104 66.8451,268.4 80.4485,268.4 80.4485,253.244 92.8147,253.244 92.8147,229.012 106.874,229.012 
  106.874,294.472 121.258,294.472 121.258,348.461 134.136,348.461 134.136,361.979 149.621,361.979 149.621,351.263 163.131,351.263 163.131,346.564 179.147,346.564 
  179.147,342.527 191.974,342.527 191.974,344.191 205.759,344.191 205.759,352.562 221.786,352.562 221.786,362.278 234.321,362.278 234.321,368.289 247.712,368.289 
  247.712,370.158 260.304,370.158 260.304,370.869 272.361,370.869 272.361,359.681 286.726,359.681 286.726,368.636 298.84,368.636 298.84,366.398 312.303,366.398 
  312.303,362.598 326.234,362.598 326.234,345.223 340.794,345.223 340.794,346.01 354.53,346.01 354.53,337.474 366.113,337.474 366.113,327.431 379.848,327.431 
  379.848,284 394.299,284 394.299,298.189 407.559,298.189 407.559,314.489 420.336,314.489 420.336,322.107 435.127,322.107 435.127,338.858 447.885,338.858 
  447.885,307.201 462.826,307.201 462.826,297.72 474.769,297.72 474.769,316.157 487.684,316.157 487.684,336.18 501.511,336.18 501.511,306.356 515.823,306.356 
  515.823,323.638 529.731,323.638 529.731,363.01 542.913,363.01 542.913,368.547 552.863,368.547 552.863,359.636 566.449,359.636 566.449,337.16 580.315,337.16 
  
  "/>
<polygon clip-path="url(#clip8400)" points="
345.158,112.856 562.315,112.856 562.315,52.3761 345.158,52.3761 
  " fill="#ffffff" fill-opacity="1"/>
<polyline clip-path="url(#clip8400)" style="stroke:#000000; stroke-width:1; stroke-opacity:1; fill:none" points="
  345.158,112.856 562.315,112.856 562.315,52.3761 345.158,52.3761 345.158,112.856 
  "/>
<polyline clip-path="url(#clip8400)" style="stroke:#00008b; stroke-width:0.5; stroke-opacity:1; fill:none" points="
  351.158,67.4961 387.158,67.4961 
  "/>
<g clip-path="url(#clip8400)">
<text style="fill:#000000; fill-opacity:1; font-family:Arial,Helvetica Neue,Helvetica,sans-serif; font-size:12; text-anchor:start;" transform="rotate(0, 393.158, 71.9961)" x="393.158" y="71.9961">posterior median</text>
</g>
<polyline clip-path="url(#clip8400)" style="stroke:#ff0000; stroke-width:1; stroke-opacity:1; fill:none" points="
  351.158,82.6161 387.158,82.6161 
  "/>
<g clip-path="url(#clip8400)">
<text style="fill:#000000; fill-opacity:1; font-family:Arial,Helvetica Neue,Helvetica,sans-serif; font-size:12; text-anchor:start;" transform="rotate(0, 393.158, 87.1161)" x="393.158" y="87.1161">true volatility</text>
</g>
<polygon clip-path="url(#clip8400)" points="
351.158,103.784 387.158,103.784 387.158,91.6881 351.158,91.6881 351.158,103.784 
  " fill="#00008b" fill-opacity="0.2"/>
<polyline clip-path="url(#clip8400)" style="stroke:#3da44d; stroke-width:1; stroke-opacity:0; fill:none" points="
  351.158,91.6881 387.158,91.6881 
  "/>
<g clip-path="url(#clip8400)">
<text style="fill:#000000; fill-opacity:1; font-family:Arial,Helvetica Neue,Helvetica,sans-serif; font-size:12; text-anchor:start;" transform="rotate(0, 393.158, 102.236)" x="393.158" y="102.236">marginal 90% credibility band</text>
</g>
</svg>
